<mxfile host="app.diagrams.net" modified="2023-11-09T14:37:49.586Z" agent="Mozilla/5.0 (Windows NT 10.0; WOW64) AppleWebKit/537.36 (KHTML, like Gecko) Chrome/109.0.0.0 Safari/537.36" etag="gf5Kuck8k7fqN-aE-vev" version="22.1.0" type="device">
  <diagram id="C5RBs43oDa-KdzZeNtuy" name="Page-1">
    <mxGraphModel dx="1006" dy="566" grid="1" gridSize="10" guides="1" tooltips="1" connect="1" arrows="1" fold="1" page="1" pageScale="1" pageWidth="827" pageHeight="1169" math="0" shadow="0">
      <root>
        <mxCell id="WIyWlLk6GJQsqaUBKTNV-0" />
        <mxCell id="WIyWlLk6GJQsqaUBKTNV-1" parent="WIyWlLk6GJQsqaUBKTNV-0" />
        <mxCell id="S-ZESiFdHlLMwPoutyLJ-3" value="" style="edgeStyle=orthogonalEdgeStyle;rounded=0;orthogonalLoop=1;jettySize=auto;html=1;" edge="1" parent="WIyWlLk6GJQsqaUBKTNV-1" source="S-ZESiFdHlLMwPoutyLJ-1" target="S-ZESiFdHlLMwPoutyLJ-2">
          <mxGeometry relative="1" as="geometry" />
        </mxCell>
        <mxCell id="S-ZESiFdHlLMwPoutyLJ-1" value="Start" style="ellipse;whiteSpace=wrap;html=1;" vertex="1" parent="WIyWlLk6GJQsqaUBKTNV-1">
          <mxGeometry x="354" width="120" height="80" as="geometry" />
        </mxCell>
        <mxCell id="S-ZESiFdHlLMwPoutyLJ-5" value="" style="edgeStyle=orthogonalEdgeStyle;rounded=0;orthogonalLoop=1;jettySize=auto;html=1;" edge="1" parent="WIyWlLk6GJQsqaUBKTNV-1" source="S-ZESiFdHlLMwPoutyLJ-2" target="S-ZESiFdHlLMwPoutyLJ-4">
          <mxGeometry relative="1" as="geometry" />
        </mxCell>
        <mxCell id="S-ZESiFdHlLMwPoutyLJ-2" value="number" style="shape=parallelogram;perimeter=parallelogramPerimeter;whiteSpace=wrap;html=1;fixedSize=1;" vertex="1" parent="WIyWlLk6GJQsqaUBKTNV-1">
          <mxGeometry x="354" y="110" width="120" height="60" as="geometry" />
        </mxCell>
        <mxCell id="S-ZESiFdHlLMwPoutyLJ-12" value="false" style="edgeStyle=orthogonalEdgeStyle;rounded=0;orthogonalLoop=1;jettySize=auto;html=1;" edge="1" parent="WIyWlLk6GJQsqaUBKTNV-1" source="S-ZESiFdHlLMwPoutyLJ-4" target="S-ZESiFdHlLMwPoutyLJ-11">
          <mxGeometry relative="1" as="geometry" />
        </mxCell>
        <mxCell id="S-ZESiFdHlLMwPoutyLJ-13" value="true" style="edgeStyle=orthogonalEdgeStyle;rounded=0;orthogonalLoop=1;jettySize=auto;html=1;" edge="1" parent="WIyWlLk6GJQsqaUBKTNV-1" source="S-ZESiFdHlLMwPoutyLJ-4" target="S-ZESiFdHlLMwPoutyLJ-10">
          <mxGeometry relative="1" as="geometry" />
        </mxCell>
        <mxCell id="S-ZESiFdHlLMwPoutyLJ-4" value="number chia hết cho&lt;br&gt;cả 3 và 5" style="rhombus;whiteSpace=wrap;html=1;" vertex="1" parent="WIyWlLk6GJQsqaUBKTNV-1">
          <mxGeometry x="344" y="200" width="140" height="80" as="geometry" />
        </mxCell>
        <mxCell id="S-ZESiFdHlLMwPoutyLJ-16" style="edgeStyle=orthogonalEdgeStyle;rounded=0;orthogonalLoop=1;jettySize=auto;html=1;exitX=0.5;exitY=1;exitDx=0;exitDy=0;entryX=1;entryY=0.5;entryDx=0;entryDy=0;" edge="1" parent="WIyWlLk6GJQsqaUBKTNV-1" source="S-ZESiFdHlLMwPoutyLJ-10" target="S-ZESiFdHlLMwPoutyLJ-14">
          <mxGeometry relative="1" as="geometry" />
        </mxCell>
        <mxCell id="S-ZESiFdHlLMwPoutyLJ-10" value="number chia hết&lt;br&gt;cho cả 3 và 5" style="shape=parallelogram;perimeter=parallelogramPerimeter;whiteSpace=wrap;html=1;fixedSize=1;" vertex="1" parent="WIyWlLk6GJQsqaUBKTNV-1">
          <mxGeometry x="530" y="210" width="120" height="60" as="geometry" />
        </mxCell>
        <mxCell id="S-ZESiFdHlLMwPoutyLJ-15" value="" style="edgeStyle=orthogonalEdgeStyle;rounded=0;orthogonalLoop=1;jettySize=auto;html=1;" edge="1" parent="WIyWlLk6GJQsqaUBKTNV-1" source="S-ZESiFdHlLMwPoutyLJ-11" target="S-ZESiFdHlLMwPoutyLJ-14">
          <mxGeometry relative="1" as="geometry" />
        </mxCell>
        <mxCell id="S-ZESiFdHlLMwPoutyLJ-11" value="number không chia&lt;br&gt;hết cho cả 3 và 5" style="shape=parallelogram;perimeter=parallelogramPerimeter;whiteSpace=wrap;html=1;fixedSize=1;" vertex="1" parent="WIyWlLk6GJQsqaUBKTNV-1">
          <mxGeometry x="337" y="320" width="154" height="60" as="geometry" />
        </mxCell>
        <mxCell id="S-ZESiFdHlLMwPoutyLJ-14" value="" style="ellipse;whiteSpace=wrap;html=1;" vertex="1" parent="WIyWlLk6GJQsqaUBKTNV-1">
          <mxGeometry x="354" y="430" width="120" height="80" as="geometry" />
        </mxCell>
      </root>
    </mxGraphModel>
  </diagram>
</mxfile>
